<?xml version="1.0" encoding="UTF-8"?>
<svg xmlns="http://www.w3.org/2000/svg" width="500" height="500" viewBox="0 0 500 500">
  <defs>
    <style>
      .c, .d, .e {
        stroke-linecap: round;
      }

      .c, .d, .e, .f, .g {
        stroke-width: 10px;
      }

      .c, .d, .e, .g {
        fill: none;
      }

      .c, .d, .f, .g {
        stroke: #231f20;
      }

      .c, .e {
        stroke-linejoin: round;
      }

      .d, .f, .g {
        stroke-miterlimit: 10;
      }

      .h {
        fill: #211d3b;
      }

      .h, .i, .j {
        stroke-width: 0px;
      }

      .e {
        stroke: #f15a29;
      }

      .i {
        fill: #8fcfb1;
        opacity: .94;
      }

      .f {
        fill: #117d40;
      }

      .j {
        fill: #fff;
      }
    </style>
  </defs>
  <g id="a" data-name="Layer 2">
    <rect class="i" x="0" width="500" height="500" rx="100.65" ry="100.65"/>
  </g>
  <g id="b" data-name="Layer 3">
    <circle class="f" cx="306.39" cy="269.98" r="153.04"/>
    <path class="j" d="M351.03,374.45l-24.36-42.2c-9.91-16.14-16.14-26.62-22.09-37.67h-.57c-5.38,11.05-10.76,21.24-20.68,37.95l-22.94,41.92h-28.32l58.35-96.58-56.08-94.32h28.61l25.21,44.75c7.08,12.46,12.46,22.09,17.56,32.29h.85c5.38-11.33,10.2-20.11,17.28-32.29l26.06-44.75h28.32l-58.06,92.9,59.48,98h-28.61Z"/>
    <line class="g" x1="306.39" y1="423.02" x2="306.39" y2="500"/>
    <line class="d" x1="275.59" y1="510.55" x2="180.9" y2="444.56"/>
    <line class="d" x1="349.8" y1="510.86" x2="409.08" y2="477.56"/>
    <g>
      <g>
        <polygon class="h" points="306.39 10.43 262.29 62.48 178.14 161.81 99.43 191.52 40.57 213.74 153.35 92.47 306.39 10.43"/>
        <path class="h" d="M262.29,62.48l44.1,57.34c-4.5,15.19-18.75,55.88-59.19,88.4-44.03,35.4-91.3,38.77-106.63,39.23l-41.14-55.93,78.71-29.71,84.15-99.33Z"/>
      </g>
      <g>
        <line class="c" x1="306.39" y1="119.82" x2="262.29" y2="62.48"/>
        <line class="c" x1="153.35" y1="92.47" x2="306.39" y2="10.43"/>
        <line class="c" x1="40.57" y1="213.74" x2="153.35" y2="92.47"/>
        <polyline class="c" points="178.14 161.81 99.43 191.52 40.57 213.74"/>
        <polyline class="c" points="306.39 10.43 262.29 62.48 178.14 161.81"/>
        <path class="c" d="M99.43,191.52l41.14,55.93c15.33-.46,62.6-3.83,106.63-39.23,40.44-32.52,54.69-73.21,59.19-88.4"/>
      </g>
    </g>
    <line class="e" x1="162.12" y1="124.79" x2="92.5" y2="198.27"/>
    <line class="e" x1="92.5" y1="198.27" x2="95.3" y2="318.6"/>
  </g>
</svg>